Coordinates
version=1
nRows=10
nColumns=40
inDegrees=yes

Units are S.I. units (second, meters, Newtons, ...)
If the header above contains a line with 'inDegrees', this indicates whether rotational values are in degrees (yes) or radians (no).

endheader
time	pelvis_tilt	pelvis_list	pelvis_rotation	pelvis_tx	pelvis_ty	pelvis_tz	hip_flexion_r	hip_adduction_r	hip_rotation_r	knee_angle_r	knee_angle_r_beta	ankle_angle_r	subtalar_angle_r	mtp_angle_r	hip_flexion_l	hip_adduction_l	hip_rotation_l	knee_angle_l	knee_angle_l_beta	ankle_angle_l	subtalar_angle_l	mtp_angle_l	lumbar_extension	lumbar_bending	lumbar_rotation	arm_flex_r	arm_add_r	arm_rot_r	elbow_flex_r	pro_sup_r	wrist_flex_r	wrist_dev_r	arm_flex_l	arm_add_l	arm_rot_l	elbow_flex_l	pro_sup_l	wrist_flex_l	wrist_dev_l
      4.66500000	    -31.34906182	     -1.75323488	     -2.96682807	     -0.39804278	      0.64240221	     -0.90039728	     88.24856785	     -8.58204951	     -5.15079765	     91.57922399	      1.59835899	     36.97822829	      0.00000000	      0.00000000	     89.72330543	    -20.10433200	      0.42907692	     91.29734992	      1.59343935	     35.11466864	      0.00000000	      0.00000000	    -12.86037879	    -14.36015820	     -9.29083641	     20.63635440	    -37.47165954	     83.97020878	     78.21895102	     87.96771774	      0.00000000	      0.00000000	     13.73273517	    -61.69948808	     83.60914579	    106.12099159	     87.84410614	      0.00000000	      0.00000000
      4.67000000	    -31.10518252	     -1.79848547	     -2.92166221	     -0.39706673	      0.64580348	     -0.90054316	     87.53661284	     -8.62733960	     -5.29337592	     91.01845647	      1.58857175	     36.88983525	      0.00000000	      0.00000000	     89.01372544	    -20.07233357	      0.27781861	     90.73583976	      1.58363915	     35.02438090	      0.00000000	      0.00000000	    -13.08277754	    -14.32095016	     -9.46513757	     20.80847660	    -37.34348633	     84.02610598	     77.99472305	     87.96496874	      0.00000000	      0.00000000	     13.72207437	    -61.71072504	     83.59607487	    105.96770703	     87.83681245	      0.00000000	      0.00000000
      4.67500000	    -30.84305876	     -1.81386522	     -2.88168258	     -0.39593867	      0.64950645	     -0.90072323	     86.77135286	     -8.68731456	     -5.42531753	     90.40904385	      1.57793549	     36.78569476	      0.00000000	      0.00000000	     88.24088401	    -20.03559893	      0.10103697	     90.14291067	      1.57329059	     34.90874278	      0.00000000	      0.00000000	    -13.28024157	    -14.31668815	     -9.63353564	     20.99166491	    -37.20285039	     84.07634243	     77.76743604	     87.95836612	      0.00000000	      0.00000000	     13.72291278	    -61.71840324	     83.56227977	    105.81744563	     87.83369915	      0.00000000	      0.00000000
      4.68000000	    -30.31206379	     -1.82309077	     -2.76282414	     -0.39427641	      0.65370910	     -0.90104136	     85.68912470	     -8.86939008	     -5.60071645	     89.88746672	      1.56883225	     36.82336109	      0.00000000	      0.00000000	     87.10905028	    -19.93230431	     -0.14254083	     89.56094405	      1.56313335	     34.93735924	      0.00000000	      0.00000000	    -13.76205012	    -14.30504555	     -9.96573937	     21.27729719	    -36.94467232	     84.28493305	     77.25459924	     87.96206281	      0.00000000	      0.00000000	     13.64385404	    -61.70704765	     83.42342375	    105.52753505	     87.82838861	      0.00000000	      0.00000000
      4.68500000	    -29.88923288	     -1.77023378	     -2.68072226	     -0.39276744	      0.65797373	     -0.90135540	     84.72138326	     -9.00835102	     -5.69405236	     89.25796969	      1.55784545	     36.74549667	      0.00000000	      0.00000000	     86.03853111	    -19.80603712	     -0.42312961	     88.87489722	      1.55115958	     34.91225532	      0.00000000	      0.00000000	    -14.04618473	    -14.35926822	    -10.22054622	     21.51634478	    -36.77810391	     84.36522823	     76.96883234	     87.95388303	      0.00000000	      0.00000000	     13.51913225	    -61.71149633	     83.20246871	    105.33387918	     87.82443675	      0.00000000	      0.00000000
      4.69000000	    -29.55348385	     -1.91170171	     -2.61423478	     -0.39117364	      0.66252414	     -0.90157250	     83.70655031	     -9.06124837	     -5.99722785	     88.48413479	      1.54433949	     36.60315108	      0.00000000	      0.00000000	     85.10832763	    -19.78932620	     -0.53269285	     88.13527477	      1.53825073	     34.77596634	      0.00000000	      0.00000000	    -14.24055230	    -14.18169630	    -10.42529162	     21.72370208	    -36.62407379	     84.39627185	     76.66031463	     87.94987282	      0.00000000	      0.00000000	     13.37664365	    -61.67234186	     83.00463673	    105.02914279	     87.81461478	      0.00000000	      0.00000000
      4.69500000	    -29.35612824	     -1.82050617	     -2.60405387	     -0.38955795	      0.66688807	     -0.90181340	     82.91867376	     -9.15473885	     -6.11186719	     87.70738187	      1.53078259	     36.43668822	      0.00000000	      0.00000000	     84.22989592	    -19.65719480	     -0.75636767	     87.38068497	      1.52508066	     34.59256546	      0.00000000	      0.00000000	    -14.07748108	    -14.28020618	    -10.52454229	     21.75148700	    -36.53305727	     84.42647377	     76.50884187	     87.94886367	      0.00000000	      0.00000000	     13.29498532	    -61.58177901	     82.91229465	    104.91501316	     87.81375146	      0.00000000	      0.00000000
      4.70000000	    -29.10620787	     -1.82599770	     -2.47261031	     -0.38798873	      0.67153493	     -0.90225081	     82.02620607	     -9.30462561	     -6.26625735	     86.90287371	      1.51674128	     36.24397936	      0.00000000	      0.00000000	     83.29712836	    -19.51132422	     -1.04191386	     86.51904856	      1.51004226	     34.40661025	      0.00000000	      0.00000000	    -14.02266775	    -14.20777087	    -10.79271598	     21.94530806	    -36.40376633	     84.32953534	     76.23721900	     87.92570138	      0.00000000	      0.00000000	     13.21888388	    -61.51262874	     82.79816976	    104.54497948	     87.80871054	      0.00000000	      0.00000000
      4.70500000	    -28.51201247	     -1.77738257	     -2.34991874	     -0.38566560	      0.67679455	     -0.90263046	     80.73070680	     -9.53169195	     -6.47284057	     86.17883694	      1.50410445	     36.15818033	      0.00000000	      0.00000000	     81.90756971	    -19.35697075	     -1.37015432	     85.71021993	      1.49592554	     34.34900656	      0.00000000	      0.00000000	    -14.24155201	    -14.22008608	    -11.04510659	     22.06949147	    -36.12009189	     84.37473136	     75.56812348	     87.93879973	      0.00000000	      0.00000000	     13.10949938	    -61.42943291	     82.41766017	    104.07936155	     87.81696705	      0.00000000	      0.00000000
      4.71000000	    -28.16300453	     -1.72144337	     -2.15912118	     -0.38367052	      0.68198309	     -0.90326999	     79.67371839	     -9.82715637	     -6.68004594	     85.32725109	      1.48924147	     35.98960206	      0.00000000	      0.00000000	     80.78095814	    -19.05572833	     -1.63405582	     84.78442017	      1.47976729	     34.19853781	      0.00000000	      0.00000000	    -14.17977233	    -14.20189465	    -11.38610111	     22.20589377	    -35.94571544	     84.36198830	     75.22098664	     87.93010822	      0.00000000	      0.00000000	     12.84943684	    -61.33427805	     82.03227833	    103.78004633	     87.80849425	      0.00000000	      0.00000000
